<svg width="65" height="28" viewBox="0 0 65 28" fill="none" xmlns="http://www.w3.org/2000/svg">
<circle cx="51" cy="14" r="14" fill="#FFC700"/>
<path d="M49.818 15.85V9.00399H47.62V15.752C47.62 15.9293 47.6107 16.116 47.592 16.312C47.5827 16.4987 47.5407 16.676 47.466 16.844C47.4007 17.0027 47.2887 17.1333 47.13 17.236C46.9713 17.3387 46.7473 17.39 46.458 17.39C46.1967 17.39 45.982 17.348 45.814 17.264C45.6553 17.18 45.5293 17.068 45.436 16.928C45.3427 16.7787 45.2773 16.6013 45.24 16.396C45.2027 16.1907 45.184 15.9667 45.184 15.724V15.276H43.196V16.144C43.196 16.6947 43.2893 17.166 43.476 17.558C43.6627 17.9407 43.91 18.258 44.218 18.51C44.526 18.7527 44.876 18.93 45.268 19.042C45.66 19.1633 46.066 19.224 46.486 19.224C47.2327 19.224 47.8253 19.112 48.264 18.888C48.7027 18.6547 49.0387 18.37 49.272 18.034C49.5053 17.6887 49.6547 17.32 49.72 16.928C49.7853 16.536 49.818 16.1767 49.818 15.85Z" fill="white"/>
<path d="M52.9633 15.682H50.8353C50.826 16.298 50.938 16.83 51.1713 17.278C51.4046 17.726 51.7173 18.0947 52.1093 18.384C52.5106 18.6733 52.968 18.8833 53.4813 19.014C54.004 19.154 54.5406 19.224 55.0913 19.224C55.7726 19.224 56.37 19.1447 56.8833 18.986C57.406 18.8273 57.84 18.608 58.1853 18.328C58.54 18.0387 58.806 17.698 58.9833 17.306C59.1606 16.914 59.2493 16.4893 59.2493 16.032C59.2493 15.472 59.128 15.0147 58.8853 14.66C58.652 14.296 58.372 14.0067 58.0453 13.792C57.7186 13.5773 57.3873 13.4233 57.0513 13.33C56.7246 13.2273 56.468 13.1573 56.2813 13.12C55.656 12.9613 55.1473 12.8307 54.7553 12.728C54.3726 12.6253 54.0693 12.5227 53.8453 12.42C53.6306 12.3173 53.486 12.2053 53.4113 12.084C53.3366 11.9627 53.2993 11.804 53.2993 11.608C53.2993 11.3933 53.346 11.216 53.4393 11.076C53.5326 10.936 53.6493 10.8193 53.7893 10.726C53.9386 10.6327 54.102 10.5673 54.2793 10.53C54.4566 10.4927 54.634 10.474 54.8113 10.474C55.082 10.474 55.3293 10.4973 55.5533 10.544C55.7866 10.5907 55.992 10.67 56.1693 10.782C56.3466 10.894 56.4866 11.048 56.5893 11.244C56.7013 11.44 56.7666 11.6873 56.7853 11.986H58.9133C58.9133 11.4073 58.8013 10.9173 58.5773 10.516C58.3626 10.1053 58.0686 9.76932 57.6953 9.50799C57.322 9.24666 56.8926 9.05999 56.4073 8.94799C55.9313 8.82666 55.432 8.76599 54.9093 8.76599C54.4613 8.76599 54.0133 8.82666 53.5653 8.94799C53.1173 9.06932 52.716 9.25599 52.3613 9.50799C52.0066 9.75999 51.7173 10.0773 51.4933 10.46C51.2786 10.8333 51.1713 11.2767 51.1713 11.79C51.1713 12.2473 51.2553 12.6393 51.4233 12.966C51.6006 13.2833 51.8293 13.5493 52.1093 13.764C52.3893 13.9787 52.7066 14.156 53.0613 14.296C53.416 14.4267 53.78 14.5387 54.1533 14.632C54.5173 14.7347 54.8766 14.828 55.2313 14.912C55.586 14.996 55.9033 15.094 56.1833 15.206C56.4633 15.318 56.6873 15.458 56.8553 15.626C57.0326 15.794 57.1213 16.0133 57.1213 16.284C57.1213 16.536 57.056 16.746 56.9253 16.914C56.7946 17.0727 56.6313 17.1987 56.4353 17.292C56.2393 17.3853 56.0293 17.4507 55.8053 17.488C55.5813 17.516 55.3713 17.53 55.1753 17.53C54.886 17.53 54.606 17.4973 54.3353 17.432C54.0646 17.3573 53.8266 17.25 53.6213 17.11C53.4253 16.9607 53.2666 16.7693 53.1453 16.536C53.024 16.3027 52.9633 16.018 52.9633 15.682Z" fill="white"/>
<path d="M11.952 8.832H1.776C2.224 5.312 4.064 2.88 7.296 1.536C9.696 0.512 13.28 0 18.048 0C23.36 0 27.296 0.56 29.856 1.68C33.024 3.056 34.608 5.44 34.608 8.832V21.984C34.608 23.84 34.96 25.408 35.664 26.688H25.488C25.2 26.016 25.024 25.216 24.96 24.288C22.528 26.592 18.448 27.744 12.72 27.744C4.24 27.744 0 25.04 0 19.632C0 16.784 0.96 14.688 2.88 13.344C4.64 12.128 7.424 11.392 11.232 11.136L21.36 10.464C22.416 10.4 23.136 10.272 23.52 10.08C24.128 9.792 24.432 9.216 24.432 8.352C24.432 6.496 22.288 5.568 18 5.568C14.448 5.568 12.432 6.656 11.952 8.832ZM24.72 16.128V14.544C23.824 14.832 22.528 15.072 20.832 15.264L13.968 16.08C12.016 16.304 11.04 17.184 11.04 18.72C11.04 20.832 12.56 21.888 15.6 21.888C18.512 21.888 20.752 21.376 22.32 20.352C23.92 19.328 24.72 17.92 24.72 16.128Z" fill="black"/>
</svg>
