<svg width="36" height="28" viewBox="0 0 36 28" fill="none" xmlns="http://www.w3.org/2000/svg">
<path d="M11.952 8.832H1.776C2.224 5.312 4.064 2.88 7.296 1.536C9.696 0.512 13.28 0 18.048 0C23.36 0 27.296 0.56 29.856 1.68C33.024 3.056 34.608 5.44 34.608 8.832V21.984C34.608 23.84 34.96 25.408 35.664 26.688H25.488C25.2 26.016 25.024 25.216 24.96 24.288C22.528 26.592 18.448 27.744 12.72 27.744C4.24 27.744 0 25.04 0 19.632C0 16.784 0.96 14.688 2.88 13.344C4.64 12.128 7.424 11.392 11.232 11.136L21.36 10.464C22.416 10.4 23.136 10.272 23.52 10.08C24.128 9.792 24.432 9.216 24.432 8.352C24.432 6.496 22.288 5.568 18 5.568C14.448 5.568 12.432 6.656 11.952 8.832ZM24.72 16.128V14.544C23.824 14.832 22.528 15.072 20.832 15.264L13.968 16.08C12.016 16.304 11.04 17.184 11.04 18.72C11.04 20.832 12.56 21.888 15.6 21.888C18.512 21.888 20.752 21.376 22.32 20.352C23.92 19.328 24.72 17.92 24.72 16.128Z" fill="black"/>
</svg>
