<svg width="237" height="62" viewBox="0 0 237 62" fill="none" xmlns="http://www.w3.org/2000/svg">
<path d="M12.248 34.144H2.07201C2.52001 30.624 4.36001 28.192 7.59201 26.848C9.99201 25.824 13.576 25.312 18.344 25.312C23.656 25.312 27.592 25.872 30.152 26.992C33.32 28.368 34.904 30.752 34.904 34.144V47.296C34.904 49.152 35.256 50.72 35.96 52H25.784C25.496 51.328 25.32 50.528 25.256 49.6C22.824 51.904 18.744 53.056 13.016 53.056C4.53601 53.056 0.296005 50.352 0.296005 44.944C0.296005 42.096 1.25601 40 3.17601 38.656C4.93601 37.44 7.72001 36.704 11.528 36.448L21.656 35.776C22.712 35.712 23.432 35.584 23.816 35.392C24.424 35.104 24.728 34.528 24.728 33.664C24.728 31.808 22.584 30.88 18.296 30.88C14.744 30.88 12.728 31.968 12.248 34.144ZM25.016 41.44V39.856C24.12 40.144 22.824 40.384 21.128 40.576L14.264 41.392C12.312 41.616 11.336 42.496 11.336 44.032C11.336 46.144 12.856 47.2 15.896 47.2C18.808 47.2 21.048 46.688 22.616 45.664C24.216 44.64 25.016 43.232 25.016 41.44Z" fill="url(#paint0_linear)"/>
<path d="M37.4218 61.408V25.984H47.3098V29.44H47.4058C49.6458 26.688 52.9418 25.312 57.2938 25.312C61.9658 25.312 65.6618 26.528 68.3818 28.96C71.1338 31.488 72.5098 34.976 72.5098 39.424C72.5098 43.328 71.1818 46.544 68.5258 49.072C65.7418 51.728 62.0298 53.056 57.3898 53.056C52.9738 53.056 49.7418 51.92 47.6938 49.648H47.5978V61.408H37.4218ZM47.5978 39.04C47.5978 41.088 48.2218 42.704 49.4698 43.888C50.7178 45.072 52.5098 45.664 54.8458 45.664C59.6458 45.664 62.0458 43.456 62.0458 39.04C62.0458 34.624 59.6458 32.416 54.8458 32.416C52.5098 32.416 50.7178 33.008 49.4698 34.192C48.2218 35.376 47.5978 36.992 47.5978 39.04Z" fill="url(#paint1_linear)"/>
<path d="M73.1555 61.408V25.984H83.0435V29.44H83.1395C85.3795 26.688 88.6755 25.312 93.0275 25.312C97.6995 25.312 101.396 26.528 104.116 28.96C106.868 31.488 108.244 34.976 108.244 39.424C108.244 43.328 106.916 46.544 104.26 49.072C101.476 51.728 97.7635 53.056 93.1235 53.056C88.7075 53.056 85.4755 51.92 83.4275 49.648H83.3315V61.408H73.1555ZM83.3315 39.04C83.3315 41.088 83.9555 42.704 85.2035 43.888C86.4515 45.072 88.2435 45.664 90.5795 45.664C95.3795 45.664 97.7795 43.456 97.7795 39.04C97.7795 34.624 95.3795 32.416 90.5795 32.416C88.2435 32.416 86.4515 33.008 85.2035 34.192C83.9555 35.376 83.3315 36.992 83.3315 39.04Z" fill="url(#paint2_linear)"/>
<path d="M107.497 43.888H119.305C119.593 45.904 121.577 46.912 125.257 46.912C128.361 46.912 129.913 46.144 129.913 44.608C129.913 43.936 129.657 43.472 129.145 43.216C128.633 42.928 127.721 42.704 126.409 42.544L117.337 41.44C111.353 40.704 108.361 38.288 108.361 34.192C108.361 30.832 109.769 28.4 112.585 26.896C115.113 25.584 118.969 24.928 124.153 24.928C134.521 24.928 139.929 27.808 140.377 33.568H128.953C128.793 31.712 126.969 30.784 123.481 30.784C120.377 30.784 118.825 31.6 118.825 33.232C118.825 34.224 119.913 34.832 122.089 35.056L130.873 36.016C134.489 36.4 137.129 37.216 138.793 38.464C140.489 39.68 141.337 41.536 141.337 44.032C141.337 50.048 135.785 53.056 124.681 53.056C113.417 53.056 107.689 50 107.497 43.888Z" fill="url(#paint3_linear)"/>
<path d="M141.951 52V16.96H152.127V29.296H152.223C154.047 26.64 157.279 25.312 161.919 25.312C166.559 25.312 170.271 26.64 173.055 29.296C175.711 31.824 177.039 35.04 177.039 38.944C177.039 43.392 175.663 46.864 172.911 49.36C170.191 51.824 166.495 53.056 161.823 53.056C157.471 53.056 154.175 51.68 151.935 48.928H151.839V52H141.951ZM152.127 39.04C152.127 41.088 152.751 42.704 153.999 43.888C155.247 45.072 157.039 45.664 159.375 45.664C164.175 45.664 166.575 43.456 166.575 39.04C166.575 34.624 164.175 32.416 159.375 32.416C157.039 32.416 155.247 33.008 153.999 34.192C152.751 35.376 152.127 36.992 152.127 39.04Z" fill="url(#paint4_linear)"/>
<path d="M178.069 61.12V54.688H180.517C183.013 54.688 184.565 54.064 185.173 52.816L186.325 50.512L174.085 25.984H185.125L191.701 41.44L198.037 25.984H208.789L194.965 55.264C193.909 57.504 192.837 59.024 191.749 59.824C190.341 60.88 188.165 61.408 185.221 61.408C183.077 61.408 180.693 61.312 178.069 61.12Z" fill="url(#paint5_linear)"/>
<path d="M192.818 7.84999V1.00399H190.62V7.75199C190.62 7.92932 190.611 8.11599 190.592 8.31199C190.583 8.49866 190.541 8.67599 190.466 8.84399C190.401 9.00266 190.289 9.13332 190.13 9.23599C189.971 9.33866 189.747 9.38999 189.458 9.38999C189.197 9.38999 188.982 9.34799 188.814 9.26399C188.655 9.17999 188.529 9.06799 188.436 8.92799C188.343 8.77866 188.277 8.60132 188.24 8.39599C188.203 8.19066 188.184 7.96666 188.184 7.72399V7.27599H186.196V8.14399C186.196 8.69466 186.289 9.16599 186.476 9.55799C186.663 9.94066 186.91 10.258 187.218 10.51C187.526 10.7527 187.876 10.93 188.268 11.042C188.66 11.1633 189.066 11.224 189.486 11.224C190.233 11.224 190.825 11.112 191.264 10.888C191.703 10.6547 192.039 10.37 192.272 10.034C192.505 9.68866 192.655 9.31999 192.72 8.92799C192.785 8.53599 192.818 8.17666 192.818 7.84999Z" fill="white"/>
<path d="M195.963 7.68199H193.835C193.826 8.29799 193.938 8.82999 194.171 9.27799C194.405 9.72599 194.717 10.0947 195.109 10.384C195.511 10.6733 195.968 10.8833 196.481 11.014C197.004 11.154 197.541 11.224 198.091 11.224C198.773 11.224 199.37 11.1447 199.883 10.986C200.406 10.8273 200.84 10.608 201.185 10.328C201.54 10.0387 201.806 9.69799 201.983 9.30599C202.161 8.91399 202.249 8.48932 202.249 8.03199C202.249 7.47199 202.128 7.01466 201.885 6.65999C201.652 6.29599 201.372 6.00666 201.045 5.79199C200.719 5.57732 200.387 5.42332 200.051 5.32999C199.725 5.22732 199.468 5.15732 199.281 5.11999C198.656 4.96132 198.147 4.83066 197.755 4.72799C197.373 4.62532 197.069 4.52266 196.845 4.41999C196.631 4.31732 196.486 4.20532 196.411 4.08399C196.337 3.96266 196.299 3.80399 196.299 3.60799C196.299 3.39332 196.346 3.21599 196.439 3.07599C196.533 2.93599 196.649 2.81932 196.789 2.72599C196.939 2.63266 197.102 2.56732 197.279 2.52999C197.457 2.49266 197.634 2.47399 197.811 2.47399C198.082 2.47399 198.329 2.49732 198.553 2.54399C198.787 2.59066 198.992 2.66999 199.169 2.78199C199.347 2.89399 199.487 3.04799 199.589 3.24399C199.701 3.43999 199.767 3.68732 199.785 3.98599H201.913C201.913 3.40732 201.801 2.91732 201.577 2.51599C201.363 2.10532 201.069 1.76932 200.695 1.50799C200.322 1.24666 199.893 1.05999 199.407 0.947991C198.931 0.826658 198.432 0.765991 197.909 0.765991C197.461 0.765991 197.013 0.826658 196.565 0.947991C196.117 1.06932 195.716 1.25599 195.361 1.50799C195.007 1.75999 194.717 2.07732 194.493 2.45999C194.279 2.83332 194.171 3.27666 194.171 3.78999C194.171 4.24732 194.255 4.63932 194.423 4.96599C194.601 5.28332 194.829 5.54932 195.109 5.76399C195.389 5.97866 195.707 6.15599 196.061 6.29599C196.416 6.42666 196.78 6.53866 197.153 6.63199C197.517 6.73466 197.877 6.82799 198.231 6.91199C198.586 6.99599 198.903 7.09399 199.183 7.20599C199.463 7.31799 199.687 7.45799 199.855 7.62599C200.033 7.79399 200.121 8.01332 200.121 8.28399C200.121 8.53599 200.056 8.74599 199.925 8.91399C199.795 9.07266 199.631 9.19866 199.435 9.29199C199.239 9.38532 199.029 9.45066 198.805 9.48799C198.581 9.51599 198.371 9.52999 198.175 9.52999C197.886 9.52999 197.606 9.49732 197.335 9.43199C197.065 9.35732 196.827 9.24999 196.621 9.10999C196.425 8.96066 196.267 8.76932 196.145 8.53599C196.024 8.30266 195.963 8.01799 195.963 7.68199Z" fill="white"/>
<circle cx="223" cy="39" r="14" fill="#FFC700"/>
<path d="M221.818 40.85V34.004H219.62V40.752C219.62 40.9293 219.611 41.116 219.592 41.312C219.583 41.4987 219.541 41.676 219.466 41.844C219.401 42.0027 219.289 42.1333 219.13 42.236C218.971 42.3387 218.747 42.39 218.458 42.39C218.197 42.39 217.982 42.348 217.814 42.264C217.655 42.18 217.529 42.068 217.436 41.928C217.343 41.7787 217.277 41.6013 217.24 41.396C217.203 41.1907 217.184 40.9667 217.184 40.724V40.276H215.196V41.144C215.196 41.6947 215.289 42.166 215.476 42.558C215.663 42.9407 215.91 43.258 216.218 43.51C216.526 43.7527 216.876 43.93 217.268 44.042C217.66 44.1633 218.066 44.224 218.486 44.224C219.233 44.224 219.825 44.112 220.264 43.888C220.703 43.6547 221.039 43.37 221.272 43.034C221.505 42.6887 221.655 42.32 221.72 41.928C221.785 41.536 221.818 41.1767 221.818 40.85Z" fill="white"/>
<path d="M224.963 40.682H222.835C222.826 41.298 222.938 41.83 223.171 42.278C223.405 42.726 223.717 43.0947 224.109 43.384C224.511 43.6733 224.968 43.8833 225.481 44.014C226.004 44.154 226.541 44.224 227.091 44.224C227.773 44.224 228.37 44.1447 228.883 43.986C229.406 43.8273 229.84 43.608 230.185 43.328C230.54 43.0387 230.806 42.698 230.983 42.306C231.161 41.914 231.249 41.4893 231.249 41.032C231.249 40.472 231.128 40.0147 230.885 39.66C230.652 39.296 230.372 39.0067 230.045 38.792C229.719 38.5773 229.387 38.4233 229.051 38.33C228.725 38.2273 228.468 38.1573 228.281 38.12C227.656 37.9613 227.147 37.8307 226.755 37.728C226.373 37.6253 226.069 37.5227 225.845 37.42C225.631 37.3173 225.486 37.2053 225.411 37.084C225.337 36.9627 225.299 36.804 225.299 36.608C225.299 36.3933 225.346 36.216 225.439 36.076C225.533 35.936 225.649 35.8193 225.789 35.726C225.939 35.6327 226.102 35.5673 226.279 35.53C226.457 35.4927 226.634 35.474 226.811 35.474C227.082 35.474 227.329 35.4973 227.553 35.544C227.787 35.5907 227.992 35.67 228.169 35.782C228.347 35.894 228.487 36.048 228.589 36.244C228.701 36.44 228.767 36.6873 228.785 36.986H230.913C230.913 36.4073 230.801 35.9173 230.577 35.516C230.363 35.1053 230.069 34.7693 229.695 34.508C229.322 34.2467 228.893 34.06 228.407 33.948C227.931 33.8267 227.432 33.766 226.909 33.766C226.461 33.766 226.013 33.8267 225.565 33.948C225.117 34.0693 224.716 34.256 224.361 34.508C224.007 34.76 223.717 35.0773 223.493 35.46C223.279 35.8333 223.171 36.2767 223.171 36.79C223.171 37.2473 223.255 37.6393 223.423 37.966C223.601 38.2833 223.829 38.5493 224.109 38.764C224.389 38.9787 224.707 39.156 225.061 39.296C225.416 39.4267 225.78 39.5387 226.153 39.632C226.517 39.7347 226.877 39.828 227.231 39.912C227.586 39.996 227.903 40.094 228.183 40.206C228.463 40.318 228.687 40.458 228.855 40.626C229.033 40.794 229.121 41.0133 229.121 41.284C229.121 41.536 229.056 41.746 228.925 41.914C228.795 42.0727 228.631 42.1987 228.435 42.292C228.239 42.3853 228.029 42.4507 227.805 42.488C227.581 42.516 227.371 42.53 227.175 42.53C226.886 42.53 226.606 42.4973 226.335 42.432C226.065 42.3573 225.827 42.25 225.621 42.11C225.425 41.9607 225.267 41.7693 225.145 41.536C225.024 41.3027 224.963 41.018 224.963 40.682Z" fill="white"/>
<defs>
<linearGradient id="paint0_linear" x1="9.10568e-07" y1="46.5" x2="212" y2="39" gradientUnits="userSpaceOnUse">
<stop stop-color="#CFCB5C"/>
<stop offset="1" stop-color="#FFB648"/>
</linearGradient>
<linearGradient id="paint1_linear" x1="9.10568e-07" y1="46.5" x2="212" y2="39" gradientUnits="userSpaceOnUse">
<stop stop-color="#CFCB5C"/>
<stop offset="1" stop-color="#FFB648"/>
</linearGradient>
<linearGradient id="paint2_linear" x1="9.10568e-07" y1="46.5" x2="212" y2="39" gradientUnits="userSpaceOnUse">
<stop stop-color="#CFCB5C"/>
<stop offset="1" stop-color="#FFB648"/>
</linearGradient>
<linearGradient id="paint3_linear" x1="9.10568e-07" y1="46.5" x2="212" y2="39" gradientUnits="userSpaceOnUse">
<stop stop-color="#CFCB5C"/>
<stop offset="1" stop-color="#FFB648"/>
</linearGradient>
<linearGradient id="paint4_linear" x1="9.10568e-07" y1="46.5" x2="212" y2="39" gradientUnits="userSpaceOnUse">
<stop stop-color="#CFCB5C"/>
<stop offset="1" stop-color="#FFB648"/>
</linearGradient>
<linearGradient id="paint5_linear" x1="9.10568e-07" y1="46.5" x2="212" y2="39" gradientUnits="userSpaceOnUse">
<stop stop-color="#CFCB5C"/>
<stop offset="1" stop-color="#FFB648"/>
</linearGradient>
</defs>
</svg>
